<svg width="190" height="182" viewBox="0 0 190 182" fill="none" xmlns="http://www.w3.org/2000/svg">
<g id="Group 6">
<g id="Path" filter="url(#filter0_d_0_309)">
<path fill-rule="evenodd" clip-rule="evenodd" d="M50 28.9889V82.8585L91.9682 106.895L139.355 78.8696V25" fill="#FF9271"/>
</g>
<path id="Path_2" d="M91.9682 53.025V106.895L139.355 78.8696V25L91.9682 53.025Z" fill="#DF5C34"/>
<path id="Path_3" d="M50 28.9889L98.6939 1.23328L139.355 25L91.9682 53.025L50 28.9889Z" fill="#F47B56"/>
<path id="Shape" fill-rule="evenodd" clip-rule="evenodd" d="M107.29 16.7272C102.949 14.3501 98.0196 13.2643 93.0828 13.5976C87.903 13.6889 82.8423 15.1682 78.4272 17.8815C76.1116 19.1999 74.2694 21.2148 73.162 23.6404C72.2387 25.7408 72.2387 28.1327 73.162 30.2331C74.28 32.6154 76.1415 34.5692 78.4656 35.7996C81.3455 37.4275 84.5202 38.4652 87.8047 38.8522C91.4182 39.3524 95.0875 39.2875 98.6811 38.6598C101.979 38.1581 105.147 37.0166 108.007 35.2994C109 34.6923 109.924 33.9784 110.762 33.1702C111.397 32.5676 111.964 31.8965 112.453 31.1694C112.791 30.6299 113.066 30.0532 113.273 29.4507C113.416 29.0749 113.532 28.6891 113.618 28.2963C113.626 28.151 113.626 28.0055 113.618 27.8602L108.866 27.5909L108.686 28.3989C108.428 29.2129 107.991 29.9582 107.405 30.5794C106.53 31.595 105.496 32.4614 104.343 33.1446C101.012 35.1202 97.198 36.1325 93.3262 36.0689C89.4372 36.2334 85.579 35.3143 82.1808 33.4139C79.0677 31.5798 77.4664 29.2967 77.4664 26.7315C77.4408 24.115 78.9396 21.8619 81.963 19.9722C85.2852 17.9461 89.0905 16.8518 92.9803 16.8041C96.6506 16.5624 100.313 17.3768 103.536 19.1513C106.568 20.947 107.2 22.3963 105.432 23.4994C104.137 24.1971 102.577 24.1971 101.282 23.4994L92.9418 18.587L89.342 20.8315L90.6231 21.6011H89.9185C89.2287 21.6395 88.5454 21.7556 87.8816 21.9474C87.0491 22.1637 86.2543 22.5054 85.5244 22.9607C83.973 23.6973 82.9781 25.2563 82.9622 26.9752C83.0391 28.5657 84.064 29.9509 86.0624 31.1309C88.1759 32.3455 90.5827 32.9534 93.0187 32.8881C95.3731 32.9342 97.6936 32.3212 99.7188 31.118C100.588 30.6258 101.312 29.9137 101.82 29.0531C102.125 28.5903 102.302 28.0547 102.332 27.5011C102.304 27.2673 102.243 27.0386 102.153 26.8213L103.126 26.8983C104.018 26.9244 104.91 26.8339 105.778 26.6289C106.835 26.4153 107.846 26.0158 108.763 25.4489C110.698 24.2817 111.518 22.8965 111.325 21.3061C111.133 19.7157 109.775 18.1894 107.29 16.7272ZM96.1445 24.8589C96.9758 25.22 97.5752 25.9689 97.7459 26.8598H97.7971C97.8103 27.6797 97.3377 28.4297 96.5929 28.7709C95.6089 29.3527 94.4814 29.6461 93.339 29.6174C92.1504 29.6449 90.9768 29.3478 89.9441 28.7581C89.1231 28.3978 88.5498 27.6341 88.4324 26.7444C88.4517 25.8899 88.9461 25.1178 89.7135 24.7435C90.6482 24.1834 91.7252 23.9072 92.8137 23.9483C93.9851 23.9498 95.1349 24.2641 96.1445 24.8589Z" fill="#3E2928"/>
</g>
<defs>
<filter id="filter0_d_0_309" x="0" y="0" width="189.355" height="181.895" filterUnits="userSpaceOnUse" color-interpolation-filters="sRGB">
<feFlood flood-opacity="0" result="BackgroundImageFix"/>
<feColorMatrix in="SourceAlpha" type="matrix" values="0 0 0 0 0 0 0 0 0 0 0 0 0 0 0 0 0 0 127 0" result="hardAlpha"/>
<feOffset dy="25"/>
<feGaussianBlur stdDeviation="25"/>
<feColorMatrix type="matrix" values="0 0 0 0 0.209139 0 0 0 0 0.0691446 0 0 0 0 0.478091 0 0 0 0.497159 0"/>
<feBlend mode="normal" in2="BackgroundImageFix" result="effect1_dropShadow_0_309"/>
<feBlend mode="normal" in="SourceGraphic" in2="effect1_dropShadow_0_309" result="shape"/>
</filter>
</defs>
</svg>
